<svg width="300" height="300" xmlns="http://www.w3.org/2000/svg">
  <g fill="#00cafd" transform="translate(-107.44 -31.278) scale(.6115)">
    <path d="M666.3 296.5c0-32.5-40.7-63.3-103.1-82.4 14.4-63.6 8-114.2-20.2-130.4-6.5-3.8-14.1-5.6-22.4-5.6v22.3c4.6 0 8.3.9 11.4 2.6 13.6 7.8 19.5 37.5 14.9 75.7-1.1 9.4-2.9 19.3-5.1 29.4-19.6-4.8-41-8.5-63.5-10.9-13.5-18.5-27.5-35.3-41.6-50 32.6-30.3 63.2-46.9 84-46.9V78c-27.5 0-63.5 19.6-99.9 53.6-36.4-33.8-72.4-53.2-99.9-53.2v22.3c20.7 0 51.4 16.5 84 46.6-14 14.7-28 31.4-41.3 49.9-22.6 2.4-44 6.1-63.6 11-2.3-10-4-19.7-5.2-29-4.7-38.2 1.1-67.9 14.6-75.8 3-1.8 6.9-2.6 11.5-2.6V78.5c-8.4 0-16 1.8-22.6 5.6-28.1 16.2-34.4 66.7-19.9 130.1-62.2 19.2-102.7 49.9-102.7 82.3 0 32.5 40.7 63.3 103.1 82.4-14.4 63.6-8 114.2 20.2 130.4 6.5 3.8 14.1 5.6 22.5 5.6 27.5 0 63.5-19.6 99.9-53.6 36.4 33.8 72.4 53.2 99.9 53.2 8.4 0 16-1.8 22.6-5.6 28.1-16.2 34.4-66.7 19.9-130.1 62-19.1 102.5-49.9 102.5-82.3zm-130.2-66.7c-3.7 12.9-8.3 26.2-13.5 39.5-4.1-8-8.4-16-13.1-24-4.6-8-9.5-15.8-14.4-23.4 14.2 2.1 27.9 4.7 41 7.9zm-45.8 106.5c-7.8 13.5-15.8 26.3-24.1 38.2-14.9 1.3-30 2-45.2 2-15.1 0-30.2-.7-45-1.9-8.3-11.9-16.4-24.6-24.2-38-7.6-13.1-14.5-26.4-20.8-39.8 6.2-13.4 13.2-26.8 20.7-39.9 7.8-13.5 15.8-26.3 24.1-38.2 14.9-1.3 30-2 45.2-2 15.1 0 30.2.7 45 1.9 8.3 11.9 16.4 24.6 24.2 38 7.6 13.1 14.5 26.4 20.8 39.8-6.3 13.4-13.2 26.8-20.7 39.9zm32.3-13c5.4 13.4 10 26.8 13.8 39.8-13.1 3.2-26.9 5.9-41.2 8 4.9-7.7 9.8-15.6 14.4-23.7 4.6-8 8.9-16.1 13-24.1zM421.2 430c-9.3-9.6-18.6-20.3-27.8-32 9 .4 18.2.7 27.5.7 9.4 0 18.7-.2 27.8-.7-9 11.7-18.3 22.4-27.5 32zm-74.4-58.9c-14.2-2.1-27.9-4.7-41-7.9 3.7-12.9 8.3-26.2 13.5-39.5 4.1 8 8.4 16 13.1 24 4.7 8 9.5 15.8 14.4 23.4zM420.7 163c9.3 9.6 18.6 20.3 27.8 32-9-.4-18.2-.7-27.5-.7-9.4 0-18.7.2-27.8.7 9-11.7 18.3-22.4 27.5-32zm-74 58.9c-4.9 7.7-9.8 15.6-14.4 23.7-4.6 8-8.9 16-13 24-5.4-13.4-10-26.8-13.8-39.8 13.1-3.1 26.9-5.8 41.2-7.9zm-90.5 125.2c-35.4-15.1-58.3-34.9-58.3-50.6 0-15.7 22.9-35.6 58.3-50.6 8.6-3.7 18-7 27.7-10.1 5.7 19.6 13.2 40 22.5 60.9-9.2 20.8-16.6 41.1-22.2 60.6-9.9-3.1-19.3-6.5-28-10.2zM310 490c-13.6-7.8-19.5-37.5-14.9-75.7 1.1-9.4 2.9-19.3 5.1-29.4 19.6 4.8 41 8.5 63.5 10.9 13.5 18.5 27.5 35.3 41.6 50-32.6 30.3-63.2 46.9-84 46.9-4.5-.1-8.3-1-11.3-2.7zm237.2-76.2c4.7 38.2-1.1 67.9-14.6 75.8-3 1.8-6.9 2.6-11.5 2.6-20.7 0-51.4-16.5-84-46.6 14-14.7 28-31.4 41.3-49.9 22.6-2.4 44-6.1 63.6-11 2.3 10.1 4.1 19.8 5.2 29.1zm38.5-66.7c-8.6 3.7-18 7-27.7 10.1-5.7-19.6-13.2-40-22.5-60.9 9.2-20.8 16.6-41.1 22.2-60.6 9.9 3.1 19.3 6.5 28.1 10.2 35.4 15.1 58.3 34.9 58.3 50.6-.1 15.7-23 35.6-58.4 50.6zM320.8 78.4Z"/>
    <circle cx="420.9" cy="296.5" r="45.7"/>
    <path d="M520.5 78.1Z"/>
  </g>
  <path style="fill:#ff6;stroke:#000;stroke-width:.01;stroke-linecap:butt;stroke-linejoin:miter;stroke-dasharray:none;stroke-opacity:1" d="M137.018 136.871c-1.02 0-1.842.63-1.842 1.414l-.002 3.733-.805.002c-.832 0-1.504.671-1.504 1.503v2.268c0 .832.672 1.497 1.504 1.502l.805.006.002 7.197c0 5.636 1.841 8.296 6.46 8.54 4.027.211 7.01-.001 7.01-1.96.687 1.739 20.783 5.872 18.135-6.96-2.882-5.976-12.146-3.387-11.86-6.163.44-1.67 5.625-1.311 7.876.188 1.625 1.161 3.531 1.223 3.531-.842l-.004-2.97c0-1.48-2.643-1.896-4.375-2.313-11.508-2.3-15.92 5.279-12.418 9.906 3.073 4.2 13.418 2.38 10.645 5.414-1.243.593-4.258 1.19-8.895-1.336-1.41-.924-3.195-.637-2.988 1.607-1.22-2.355-6.648 3.722-6.656-3.2l.008-7.11 5.5-.002a1.5 1.5 0 0 0 1.501-1.504v-2.268c0-.832-.669-1.502-1.501-1.502h-5.5l-.008-3.736c0-.783-.822-1.414-1.842-1.414h-2.777zm1.244 2.76h.297v3.713c.037.435.005.867.93 1.322-.593.27-.858.7-.93 1.219v9.6c0 3.526 1.942 4.364 3.597 4.804-1.63-.377-3.596-.365-3.894-4.117v-10.287c-.068-.463-.242-.901-.928-1.219.591-.222.9-.663.928-1.322v-3.713zm23.3 5.039 1.713.441v.27l-1.713-.711zm-8.85 1.154c-2.772 4.208 1.204 5.726 5.003 6.403 6.536.806 7.336 3.176 5.472 6.273 1.297-3 0-5.272-5.011-6.02-9.235-.718-6.895-5.272-5.463-6.656zm-1.362 13.252c.816.428 1.92.791 2.921 1.139-.985-.215-2.003-.378-2.921-.701v-.438z"/>
</svg>
