<svg viewBox="0 0 100 100" xmlns="http://www.w3.org/2000/svg">
    <g fill="#764abc">
        <path d="M69.29 69.014c3.69-.382 6.49-3.563 6.362-7.38-.127-3.818-3.308-6.872-7.126-6.872h-.255c-3.944.127-6.999 3.436-6.871 7.38.127 1.91.89 3.564 2.036 4.709-4.327 8.526-10.944 14.761-20.87 19.979-6.744 3.563-13.743 4.835-20.742 3.945-5.727-.764-10.18-3.309-12.98-7.508-4.072-6.236-4.454-12.98-1.018-19.725 2.417-4.835 6.235-8.399 8.653-10.18-.51-1.654-1.273-4.454-1.654-6.49C-3.627 60.234-1.718 78.304 3.88 86.83c4.2 6.363 12.725 10.307 22.142 10.307 2.545 0 5.09-.254 7.635-.89C49.947 93.065 62.29 83.394 69.29 69.014z"/>
        <path d="M91.686 53.235c-9.671-11.326-23.924-17.561-40.212-17.561h-2.036c-1.146-2.291-3.563-3.818-6.236-3.818h-.254c-3.945.127-7 3.436-6.872 7.38.127 3.818 3.309 6.872 7.126 6.872h.255c2.8-.127 5.217-1.908 6.235-4.326h2.29c9.672 0 18.834 2.8 27.106 8.271 6.363 4.2 10.944 9.672 13.489 16.289 2.163 5.345 2.036 10.562-.255 15.016-3.563 6.744-9.544 10.435-17.433 10.435-5.09 0-9.926-1.527-12.471-2.673-1.4 1.273-3.945 3.309-5.727 4.582 5.472 2.545 11.071 3.944 16.416 3.944 12.216 0 21.252-6.744 24.687-13.489 3.69-7.38 3.436-20.106-6.108-30.922z"/>
        <path d="M27.041 71.178c.127 3.817 3.309 6.871 7.126 6.871h.255c3.945-.127 6.999-3.436 6.872-7.38-.128-3.818-3.31-6.872-7.127-6.872h-.254c-.255 0-.637 0-.891.127-5.217-8.653-7.38-18.07-6.617-28.25.509-7.636 3.054-14.253 7.508-19.725 3.69-4.708 10.816-6.999 15.652-7.126C63.054 8.568 68.78 25.366 69.162 32.11c1.654.382 4.454 1.273 6.363 1.91C73.998 13.403 61.272 2.714 49.056 2.714c-11.453 0-22.015 8.271-26.214 20.488-5.854 16.288-2.036 31.94 5.09 44.284-.636.89-1.018 2.29-.891 3.69z"/>
    </g>
</svg>
